<svg xmlns="http://www.w3.org/2000/svg" xmlns:xlink="http://www.w3.org/1999/xlink" width="1920" zoomAndPan="magnify" viewBox="0 0 1440 809.999993" height="1080" preserveAspectRatio="xMidYMid meet" version="1.0"><defs><clipPath id="3cb56a332f"><path d="M 359.875 6.523438 L 1079.875 6.523438 L 1079.875 728 L 359.875 728 Z M 359.875 6.523438 " clip-rule="nonzero"/></clipPath><clipPath id="2eed3bbab8"><path d="M 375 506 L 1065 506 L 1065 803.773438 L 375 803.773438 Z M 375 506 " clip-rule="nonzero"/></clipPath></defs><rect x="-144" width="1728" fill="#ffffff" y="-80.999999" height="971.999992" fill-opacity="1"/><rect x="-144" width="1728" fill="#fcf3e3" y="-80.999999" height="971.999992" fill-opacity="1"/><g clip-path="url(#3cb56a332f)"><path fill="#ffffff" d="M 1080.035156 366.976562 C 1080.035156 565.976562 918.839844 727.289062 719.984375 727.289062 C 521.140625 727.289062 359.945312 565.976562 359.945312 366.976562 C 359.945312 167.980469 521.140625 6.667969 719.984375 6.667969 C 918.839844 6.667969 1080.035156 167.980469 1080.035156 366.976562 " fill-opacity="1" fill-rule="nonzero"/></g><path fill="#c3633a" d="M 781.695312 492.882812 C 786.5 473.988281 771.550781 449.238281 771.550781 449.238281 C 776.886719 420.878906 763.546875 405.839844 763.546875 405.839844 L 689.863281 405.839844 C 689.863281 405.839844 674.558594 420.878906 679.894531 449.238281 C 679.894531 449.238281 664.945312 473.988281 669.75 492.882812 C 669.75 492.882812 628.480469 520.445312 653.730469 574.464844 C 657.300781 582.085938 668.152344 593.371094 683.101562 593.371094 C 706.28125 593.371094 717.09375 590.257812 725.726562 585.410156 C 736.710938 590.257812 745.167969 593.371094 768.34375 593.371094 C 783.292969 593.371094 794.144531 582.085938 797.707031 574.464844 C 822.976562 520.445312 781.695312 492.882812 781.695312 492.882812 " fill-opacity="1" fill-rule="nonzero"/><path fill="#d77445" d="M 795.972656 421.101562 C 794.90625 410.835938 784.320312 362.050781 773.546875 353.308594 C 763.75 345.359375 750.820312 341.597656 742.824219 339.175781 C 747.589844 342.15625 751.765625 346.292969 753.128906 351.902344 C 756.867188 367.304688 755.53125 367.5625 763.8125 378.863281 C 764.976562 380.460938 765.675781 384.511719 765.402344 389.355469 C 766.734375 392.515625 772.929688 404.210938 777.550781 429.191406 C 779.484375 439.617188 798.378906 445.375 798.378906 445.375 C 798.378906 445.375 797.042969 431.375 795.972656 421.101562 " fill-opacity="1" fill-rule="nonzero"/><path fill="#f9a995" d="M 777.550781 429.191406 C 779.484375 439.617188 798.378906 445.375 798.378906 445.375 C 794.773438 438.441406 776.753906 384.511719 773.152344 372.183594 C 770.613281 363.511719 759.96875 357.710938 753.871094 355.023438 C 756.722656 367.394531 756.132812 368.390625 763.8125 378.863281 C 764.976562 380.460938 765.675781 384.511719 765.402344 389.355469 C 766.734375 392.515625 772.929688 404.210938 777.550781 429.191406 " fill-opacity="1" fill-rule="nonzero"/><path fill="#d77445" d="M 656.734375 421.101562 C 657.796875 410.835938 668.382812 362.050781 679.152344 353.308594 C 688.953125 345.359375 701.886719 341.597656 709.882812 339.175781 C 705.113281 342.15625 700.933594 346.292969 699.582031 351.902344 C 695.84375 367.304688 697.179688 367.5625 688.898438 378.863281 C 687.734375 380.460938 687.035156 384.511719 687.300781 389.355469 C 685.972656 392.515625 679.773438 404.210938 675.152344 429.191406 C 673.222656 439.617188 654.332031 445.375 654.332031 445.375 C 654.332031 445.375 655.667969 431.375 656.734375 421.101562 " fill-opacity="1" fill-rule="nonzero"/><path fill="#f9a995" d="M 675.152344 429.191406 C 673.222656 439.617188 654.332031 445.375 654.332031 445.375 C 657.9375 438.441406 675.953125 384.511719 679.558594 372.183594 C 682.09375 363.511719 692.742188 357.710938 698.839844 355.023438 C 695.984375 367.394531 696.570312 368.390625 688.898438 378.863281 C 687.734375 380.460938 687.035156 384.511719 687.300781 389.355469 C 685.972656 392.515625 679.773438 404.210938 675.152344 429.191406 " fill-opacity="1" fill-rule="nonzero"/><path fill="#d77445" d="M 766.179688 380.460938 C 757.910156 368.703125 759.234375 368.4375 755.503906 352.414062 C 751.980469 337.328125 729.597656 332.402344 726.929688 332.421875 C 718.164062 332.484375 701.613281 337.328125 698.097656 352.414062 C 694.359375 368.4375 695.703125 370.035156 687.414062 380.460938 C 682.960938 386.066406 685.019531 424 714.648438 417.324219 C 717.835938 416.601562 723.582031 411.96875 726.929688 411.96875 C 732.539062 411.96875 735.757812 416.601562 738.957031 417.324219 C 768.582031 424 770.304688 386.324219 766.179688 380.460938 " fill-opacity="1" fill-rule="nonzero"/><path fill="#4b1615" d="M 760.710938 364.90625 C 761.761719 369.144531 760.027344 373.210938 759.320312 373.386719 C 758.003906 373.714844 752.976562 373.441406 751.847656 367.082031 C 750.832031 361.351562 754.621094 358.304688 755.503906 358.082031 C 756.785156 357.753906 759.648438 360.679688 760.710938 364.90625 " fill-opacity="1" fill-rule="nonzero"/><path fill="#4b1615" d="M 691.671875 364.90625 C 690.621094 369.144531 692.363281 373.210938 693.0625 373.386719 C 694.378906 373.714844 699.40625 373.441406 700.535156 367.082031 C 701.550781 361.351562 697.761719 358.304688 696.878906 358.082031 C 695.597656 357.753906 692.726562 360.679688 691.671875 364.90625 " fill-opacity="1" fill-rule="nonzero"/><path fill="#ffffff" d="M 734.28125 385.246094 L 731.152344 333.121094 C 729.199219 332.632812 727.742188 332.414062 727.1875 332.421875 C 725.929688 332.429688 724.515625 332.535156 723.007812 332.757812 L 719.683594 385.421875 C 710.707031 387.21875 702.585938 392.1875 702.585938 398.835938 C 702.585938 402.796875 708.003906 411.09375 711.332031 413.789062 C 713.152344 414.683594 715.453125 416.078125 717.652344 415.566406 C 721.441406 414.671875 724.359375 411.347656 726.851562 411.347656 C 730.933594 411.347656 733.664062 415.476562 736.550781 416.0625 C 738.574219 416.476562 740.226562 415.40625 741.800781 414.398438 C 745.433594 412.089844 751.378906 401.171875 751.378906 397.199219 C 751.378906 390.578125 743.257812 386.625 734.28125 385.246094 " fill-opacity="1" fill-rule="nonzero"/><path fill="#f9a995" d="M 721.140625 412.929688 C 721.414062 415.839844 723.871094 418.121094 726.851562 418.121094 C 729.828125 418.121094 732.285156 415.839844 732.558594 412.929688 C 732.558594 412.929688 728.492188 410.960938 727.019531 410.949219 C 725.460938 410.933594 721.140625 412.929688 721.140625 412.929688 " fill-opacity="1" fill-rule="nonzero"/><path fill="#4b1615" d="M 744.453125 410.324219 C 744.070312 410.109375 743.601562 410.253906 743.390625 410.625 C 742.082031 413 740.597656 414.382812 739 414.734375 C 736.632812 415.273438 734.21875 413.507812 732.621094 412.347656 C 732.082031 411.957031 731.621094 411.621094 731.234375 411.417969 C 729.808594 410.667969 728.5625 410.5 727.761719 410.492188 L 727.761719 395 L 727.75 394.9375 C 730.339844 394.652344 732.9375 392.585938 734.140625 389.765625 C 734.308594 389.355469 734.121094 388.898438 733.722656 388.730469 C 733.316406 388.5625 732.859375 388.746094 732.691406 389.144531 C 731.628906 391.628906 729.199219 393.46875 727.042969 393.398438 C 725.144531 393.34375 721.972656 391.453125 720.734375 389.09375 C 720.53125 388.703125 720.054688 388.550781 719.675781 388.757812 C 719.285156 388.960938 719.136719 389.4375 719.339844 389.816406 C 720.613281 392.25 723.667969 394.449219 726.222656 394.894531 L 726.203125 395 L 726.203125 410.492188 C 725.402344 410.5 724.15625 410.667969 722.730469 411.417969 C 722.34375 411.621094 721.882812 411.957031 721.34375 412.347656 C 719.746094 413.507812 717.332031 415.265625 714.972656 414.734375 C 713.367188 414.382812 711.890625 413 710.574219 410.625 C 710.363281 410.253906 709.894531 410.109375 709.523438 410.324219 C 709.140625 410.535156 709.011719 411.011719 709.222656 411.382812 C 710.75 414.152344 712.578125 415.796875 714.628906 416.257812 C 715.0625 416.34375 715.476562 416.398438 715.882812 416.398438 C 718.429688 416.398438 720.691406 414.753906 722.265625 413.613281 C 722.742188 413.257812 723.164062 412.949219 723.464844 412.796875 C 725.355469 411.789062 726.753906 412.074219 726.816406 412.082031 L 727.070312 412.082031 L 727.148438 412.089844 C 727.210938 412.074219 728.617188 411.789062 730.507812 412.796875 C 730.800781 412.949219 731.222656 413.257812 731.710938 413.613281 C 733.28125 414.753906 735.542969 416.398438 738.082031 416.398438 C 738.496094 416.398438 738.910156 416.34375 739.328125 416.257812 C 741.394531 415.796875 743.222656 414.152344 744.75 411.382812 C 744.964844 411.011719 744.824219 410.535156 744.453125 410.324219 " fill-opacity="1" fill-rule="nonzero"/><path fill="#e4d8c2" d="M 683.101562 593.371094 C 706.28125 593.371094 717.09375 590.257812 725.726562 585.410156 C 736.710938 590.257812 745.167969 593.371094 768.34375 593.371094 C 772.957031 593.371094 777.171875 592.300781 780.910156 590.582031 C 780.722656 588.585938 780.457031 586.480469 780.085938 584.289062 C 771.550781 532.992188 752.863281 453.914062 724.296875 453.914062 C 700.855469 453.914062 675.980469 535.664062 669.574219 586.957031 C 669.453125 587.984375 669.34375 588.984375 669.246094 589.964844 C 673.292969 592.035156 677.953125 593.371094 683.101562 593.371094 " fill-opacity="1" fill-rule="nonzero"/><path fill="#d0baa7" d="M 781.21875 599.460938 C 786.457031 599.460938 788.835938 595.617188 786.492188 590.921875 C 786.492188 590.921875 782.949219 577.710938 767.601562 577.710938 C 752.484375 577.710938 748.71875 590.921875 748.71875 590.921875 C 746.378906 595.617188 748.761719 599.460938 753.992188 599.460938 L 781.21875 599.460938 " fill-opacity="1" fill-rule="nonzero"/><path fill="#b8a27c" d="M 762.335938 578.71875 C 761.734375 580.679688 761.1875 582.441406 760.761719 584.164062 C 760.347656 585.871094 760.082031 587.515625 760.054688 589.105469 C 760.027344 590.699219 760.222656 592.265625 760.675781 593.898438 C 761.117188 595.542969 761.8125 597.214844 762.566406 599.117188 C 760.894531 598.460938 759.429688 597.171875 758.339844 595.394531 C 757.261719 593.617188 756.636719 591.292969 756.699219 589.011719 C 756.75 586.71875 757.40625 584.554688 758.394531 582.785156 C 759.402344 581.023438 760.710938 579.546875 762.335938 578.71875 " fill-opacity="1" fill-rule="nonzero"/><path fill="#b8a27c" d="M 773.378906 578.71875 C 773.988281 580.679688 774.546875 582.441406 774.960938 584.164062 C 775.378906 585.871094 775.632812 587.515625 775.667969 589.105469 C 775.703125 590.699219 775.5 592.265625 775.050781 593.898438 C 774.617188 595.542969 773.910156 597.214844 773.160156 599.117188 C 774.828125 598.460938 776.296875 597.171875 777.382812 595.394531 C 778.46875 593.617188 779.089844 591.292969 779.027344 589.011719 C 778.980469 586.71875 778.328125 584.554688 777.328125 582.785156 C 776.324219 581.023438 775.015625 579.546875 773.378906 578.71875 " fill-opacity="1" fill-rule="nonzero"/><path fill="#d0baa7" d="M 696.320312 599.460938 C 701.5625 599.460938 703.9375 595.617188 701.605469 590.921875 C 701.605469 590.921875 698.0625 577.710938 682.714844 577.710938 C 667.59375 577.710938 663.832031 590.921875 663.832031 590.921875 C 661.488281 595.617188 663.867188 599.460938 669.105469 599.460938 L 696.320312 599.460938 " fill-opacity="1" fill-rule="nonzero"/><path fill="#b8a27c" d="M 677.457031 578.71875 C 676.847656 580.679688 676.300781 582.441406 675.875 584.164062 C 675.460938 585.871094 675.203125 587.515625 675.167969 589.105469 C 675.140625 590.699219 675.335938 592.265625 675.785156 593.898438 C 676.21875 595.542969 676.925781 597.214844 677.675781 599.117188 C 676.007812 598.460938 674.539062 597.171875 673.453125 595.394531 C 672.375 593.617188 671.75 591.292969 671.808594 589.011719 C 671.855469 586.71875 672.515625 584.554688 673.507812 582.785156 C 674.515625 581.023438 675.820312 579.546875 677.457031 578.71875 " fill-opacity="1" fill-rule="nonzero"/><path fill="#b8a27c" d="M 688.492188 578.71875 C 689.101562 580.679688 689.660156 582.441406 690.074219 584.164062 C 690.488281 585.871094 690.746094 587.515625 690.78125 589.105469 C 690.808594 590.699219 690.613281 592.265625 690.164062 593.898438 C 689.730469 595.542969 689.023438 597.214844 688.273438 599.117188 C 689.941406 598.460938 691.410156 597.171875 692.496094 595.394531 C 693.582031 593.617188 694.199219 591.292969 694.140625 589.011719 C 694.09375 586.71875 693.433594 584.554688 692.441406 582.785156 C 691.433594 581.023438 690.128906 579.546875 688.492188 578.71875 " fill-opacity="1" fill-rule="nonzero"/><path fill="#d77445" d="M 771.347656 424.0625 C 771.347656 424.0625 751.527344 444.84375 744.582031 459.796875 C 737.648438 474.765625 726.972656 506.820312 733.910156 521.242188 C 733.910156 521.242188 740.316406 524.453125 744.582031 513.230469 C 748.859375 502.007812 760.675781 476.648438 766.550781 473.953125 C 785.167969 465.410156 787.835938 443.234375 771.347656 424.0625 " fill-opacity="1" fill-rule="nonzero"/><path fill="#d77445" d="M 680.902344 424.0625 C 680.902344 424.0625 700.722656 444.84375 707.65625 459.796875 C 714.601562 474.765625 725.277344 506.820312 718.339844 521.242188 C 718.339844 521.242188 711.933594 524.453125 707.65625 513.230469 C 703.390625 502.007812 691.578125 476.648438 685.710938 473.953125 C 667.09375 465.410156 664.414062 443.234375 680.902344 424.0625 " fill-opacity="1" fill-rule="nonzero"/><path fill="#2f9297" d="M 417.898438 650.15625 C 417.898438 650.15625 431.921875 685.25 487.03125 706.304688 C 542.132812 727.359375 647.324219 791.519531 702.425781 775.480469 C 702.425781 775.480469 573.191406 624.085938 417.898438 650.15625 " fill-opacity="1" fill-rule="nonzero"/><path fill="#2f9297" d="M 714.453125 765.460938 C 714.453125 765.460938 809.632812 792.527344 880.765625 754.425781 C 951.894531 716.332031 1021.222656 668.042969 1021.222656 668.042969 C 1021.222656 668.042969 847.699219 666.195312 714.453125 765.460938 " fill-opacity="1" fill-rule="nonzero"/><g clip-path="url(#2eed3bbab8)"><path fill="#61cac2" d="M 1058.765625 660.03125 C 1051.546875 650.367188 1034.09375 647.113281 1024.914062 646.050781 C 985.894531 614.21875 909.234375 553.082031 874.269531 534.894531 C 837.988281 516.015625 720.460938 506.785156 720.460938 506.785156 C 720.460938 506.785156 595.996094 518.28125 558.3125 538.589844 C 526.933594 555.496094 456.902344 614.289062 425.710938 641.003906 C 419.871094 638.042969 404.8125 632.222656 390.082031 641.570312 C 371.269531 653.507812 376.113281 675.398438 376.113281 675.398438 C 376.113281 675.398438 377.183594 664.3125 387.9375 664.886719 C 395.949219 665.3125 418.289062 667.460938 426.25 657.460938 C 458.519531 663.789062 544.09375 703.296875 573.191406 703.296875 C 647.324219 703.296875 673.355469 758.792969 693.847656 772.613281 C 695.578125 779.078125 701.09375 786.257812 714.390625 792.613281 C 726.574219 798.433594 730.621094 803.722656 730.621094 803.722656 C 730.621094 803.722656 739.652344 793.828125 733.203125 778.140625 C 730.914062 772.550781 725.816406 767.804688 720.195312 764.011719 C 752.078125 746.933594 818.648438 696.277344 884.765625 705.304688 C 933.410156 711.9375 977.6875 672.234375 1021.222656 668.042969 C 1025.046875 672.765625 1031.964844 676.964844 1044.070312 679.105469 C 1057.253906 681.449219 1062.441406 685.472656 1062.441406 685.472656 C 1062.441406 685.472656 1068.785156 673.464844 1058.765625 660.03125 " fill-opacity="1" fill-rule="nonzero"/></g><path fill="#f57b2c" d="M 466.613281 554.019531 C 467.734375 561.308594 469.386719 572.296875 469.386719 572.296875 C 473.964844 593.332031 501.699219 607.851562 510.730469 599.957031 C 550.632812 565.046875 594.398438 595.933594 607.175781 559.230469 C 611.46875 546.875 593.25 535.1875 561.871094 534.886719 C 541.769531 534.683594 496.628906 559.625 496.628906 559.625 C 493.605469 539.777344 463.574219 534.082031 466.613281 554.019531 " fill-opacity="1" fill-rule="nonzero"/><path fill="#401e08" d="M 470.667969 543.222656 C 471.929688 542.78125 473.273438 542.871094 474.519531 543.199219 C 475.773438 543.550781 476.976562 544.195312 477.964844 545.082031 C 479.945312 546.882812 481.066406 549.777344 480.167969 552.332031 C 479.265625 551.351562 478.574219 550.457031 477.859375 549.6875 C 477.152344 548.902344 476.464844 548.21875 475.722656 547.546875 C 474.972656 546.882812 474.210938 546.230469 473.378906 545.523438 C 472.539062 544.84375 471.648438 544.136719 470.667969 543.222656 " fill-opacity="1" fill-rule="nonzero"/><path fill="#401e08" d="M 466.746094 551.15625 C 467.917969 550.449219 469.273438 550.28125 470.535156 550.429688 C 471.851562 550.554688 473.152344 551.03125 474.238281 551.84375 C 476.445312 553.445312 477.753906 556.265625 477.039062 558.855469 C 476.066406 557.921875 475.316406 557.097656 474.5625 556.398438 C 473.796875 555.691406 473.054688 555.097656 472.3125 554.535156 C 471.515625 553.957031 470.703125 553.429688 469.785156 552.90625 L 466.746094 551.15625 " fill-opacity="1" fill-rule="nonzero"/><path fill="#f57b2c" d="M 639.664062 540.414062 C 641.195312 547.636719 643.515625 558.519531 643.515625 558.519531 C 647.554688 573.113281 656.277344 572.378906 665.148438 571.652344 C 668.875 571.34375 672.640625 571.035156 676.097656 571.863281 C 690.808594 575.410156 697.550781 579.753906 708.605469 579.210938 C 715.460938 578.875 717.730469 570.140625 721.839844 570.855469 C 792.882812 583.421875 801.074219 537.601562 796.839844 521.949219 C 792.882812 507.199219 780.890625 488.199219 759.347656 488.171875 C 735.703125 488.117188 716.699219 500.65625 711.820312 521.824219 C 703.523438 558.015625 669.953125 544.257812 669.953125 544.257812 C 665.785156 524.644531 635.476562 520.695312 639.664062 540.414062 " fill-opacity="1" fill-rule="nonzero"/><path fill="#401e08" d="M 643.542969 530.085938 C 644.796875 529.542969 646.125 529.5625 647.40625 529.808594 C 648.6875 530.074219 649.941406 530.660156 650.949219 531.5 C 653.042969 533.179688 654.304688 536.015625 653.554688 538.617188 C 652.582031 537.671875 651.851562 536.847656 651.089844 536.097656 C 650.347656 535.355469 649.605469 534.71875 648.835938 534.089844 C 648.085938 533.453125 647.253906 532.859375 646.398438 532.222656 C 645.503906 531.570312 644.605469 530.90625 643.542969 530.085938 " fill-opacity="1" fill-rule="nonzero"/><path fill="#401e08" d="M 640.089844 538.203125 C 641.21875 537.441406 642.546875 537.210938 643.863281 537.253906 C 645.152344 537.316406 646.476562 537.734375 647.644531 538.449219 C 649.933594 539.917969 651.390625 542.675781 650.816406 545.3125 C 649.78125 544.433594 649.003906 543.648438 648.175781 542.992188 C 647.359375 542.332031 646.609375 541.78125 645.824219 541.261719 C 645.027344 540.730469 644.179688 540.269531 643.226562 539.792969 L 640.089844 538.203125 " fill-opacity="1" fill-rule="nonzero"/><path fill="#f7982a" d="M 796.117188 532.257812 C 798.367188 511.445312 781.472656 459.65625 734.148438 462.351562 C 712.507812 463.570312 701.773438 472.707031 674.496094 479.355469 C 639.964844 487.78125 626.101562 470.019531 626.101562 470.019531 L 545.261719 481.230469 C 531.890625 533.53125 556.660156 595.164062 658.0625 606.199219 C 719.753906 612.917969 789.019531 597.402344 796.117188 532.257812 " fill-opacity="1" fill-rule="nonzero"/><path fill="#f7982a" d="M 486.960938 569.582031 C 488.269531 576.851562 490.1875 587.808594 490.1875 587.808594 C 495.25 608.710938 523.304688 622.601562 532.132812 614.492188 C 571.210938 578.664062 615.703125 608.5 627.613281 571.519531 C 631.625 559.050781 613.121094 547.820312 581.753906 548.238281 C 561.644531 548.511719 517.117188 574.492188 517.117188 574.492188 C 513.601562 554.738281 483.453125 549.742188 486.960938 569.582031 " fill-opacity="1" fill-rule="nonzero"/><path fill="#401e08" d="M 490.75 558.707031 C 492.015625 558.230469 493.359375 558.292969 494.640625 558.582031 C 495.902344 558.902344 497.105469 559.511719 498.121094 560.394531 C 500.144531 562.148438 501.3125 565.011719 500.480469 567.585938 C 499.542969 566.613281 498.828125 565.753906 498.101562 564.984375 C 497.398438 564.226562 496.671875 563.570312 495.9375 562.890625 C 495.167969 562.269531 494.375 561.632812 493.535156 560.945312 C 492.667969 560.28125 491.777344 559.589844 490.75 558.707031 " fill-opacity="1" fill-rule="nonzero"/><path fill="#401e08" d="M 487.039062 566.71875 C 488.199219 566.003906 489.523438 565.808594 490.839844 565.886719 C 492.121094 566.019531 493.421875 566.460938 494.570312 567.222656 C 496.804688 568.761719 498.15625 571.582031 497.503906 574.191406 C 496.496094 573.289062 495.734375 572.464844 494.964844 571.785156 C 494.1875 571.105469 493.4375 570.511719 492.667969 569.980469 C 491.875 569.414062 491.027344 568.929688 490.105469 568.40625 L 487.039062 566.71875 " fill-opacity="1" fill-rule="nonzero"/><path fill="#f8a535" d="M 649.851562 582.273438 C 652.734375 589.214844 657.117188 599.648438 657.117188 599.648438 C 663.929688 613.484375 672.535156 611.089844 681.28125 608.691406 C 684.949219 607.683594 688.632812 606.675781 692.230469 606.863281 C 707.585938 607.625 715.167969 610.699219 726.125 608.082031 C 732.910156 606.457031 733.539062 597.277344 737.796875 597.222656 C 811.207031 596.394531 810.765625 549.007812 803.625 534.152344 C 796.847656 520.152344 781.296875 503.40625 759.738281 507.429688 C 736.074219 511.851562 719.390625 527.980469 718.527344 550.058594 C 717.050781 587.832031 680.867188 580.398438 680.867188 580.398438 C 673.003906 561.570312 641.9375 563.332031 649.851562 582.273438 " fill-opacity="1" fill-rule="nonzero"/><path fill="#401e08" d="M 651.777344 571.210938 C 652.953125 570.433594 654.261719 570.183594 655.605469 570.191406 C 656.929688 570.21875 658.257812 570.582031 659.476562 571.21875 C 661.871094 572.519531 663.671875 575.101562 663.433594 577.851562 C 662.277344 577.082031 661.394531 576.382812 660.464844 575.789062 C 659.597656 575.199219 658.734375 574.683594 657.832031 574.199219 C 656.957031 573.730469 656.054688 573.269531 655.066406 572.792969 C 654.023438 572.316406 653 571.828125 651.777344 571.210938 " fill-opacity="1" fill-rule="nonzero"/><path fill="#401e08" d="M 649.878906 579.972656 C 650.894531 579 652.125 578.515625 653.441406 578.320312 C 654.792969 578.125 656.152344 578.285156 657.460938 578.816406 C 660.015625 579.832031 662.003906 582.332031 661.90625 585.066406 C 660.722656 584.375 659.777344 583.757812 658.875 583.246094 C 657.945312 582.722656 657.082031 582.316406 656.1875 581.945312 C 655.269531 581.589844 654.316406 581.28125 653.316406 580.972656 L 649.878906 579.972656 " fill-opacity="1" fill-rule="nonzero"/><path fill="#f89e2a" d="M 605.257812 473.308594 C 605.257812 473.308594 609.808594 436.1875 591.996094 426.511719 C 591.996094 426.511719 566.007812 434.066406 560.742188 455.101562 C 560.742188 455.101562 578.148438 473.757812 605.257812 473.308594 " fill-opacity="1" fill-rule="nonzero"/><path fill="#fbc45a" d="M 595.601562 464.949219 C 587.027344 459.488281 577.6875 456.171875 568.429688 454.886719 C 573.5625 444.445312 586.84375 440.582031 586.84375 440.582031 C 594.742188 444.871094 595.722656 457.613281 595.601562 464.949219 " fill-opacity="1" fill-rule="nonzero"/><path fill="#f89e2a" d="M 499.984375 507.535156 C 499.984375 507.535156 474.546875 480.160156 483.269531 461.863281 C 483.269531 461.863281 508.6875 452.695312 525.316406 466.613281 C 525.316406 466.613281 522.207031 491.9375 499.984375 507.535156 " fill-opacity="1" fill-rule="nonzero"/><path fill="#fbc45a" d="M 503.660156 496.085938 C 499.332031 490.539062 491.566406 478.808594 495.664062 470.230469 C 495.664062 470.230469 500.886719 468.347656 507.347656 468.347656 C 511.226562 468.347656 515.554688 469.027344 519.453125 471.203125 C 512.816406 477.921875 507.355469 486.394531 503.660156 496.085938 " fill-opacity="1" fill-rule="nonzero"/><path fill="#f89e2a" d="M 620.472656 491.777344 C 635.792969 519.421875 606.554688 541.738281 572.882812 552.683594 C 539.226562 563.625 500.859375 562.871094 498.597656 531.394531 C 496.054688 495.535156 516.039062 465.445312 541.851562 457.054688 C 567.667969 448.65625 602.464844 459.195312 620.472656 491.777344 " fill-opacity="1" fill-rule="nonzero"/><path fill="#f9ab58" d="M 536.453125 559.070312 C 529.515625 559.070312 523.054688 558.175781 517.507812 556.203125 C 517.507812 556.203125 517.5 556.195312 517.5 556.195312 C 523.054688 558.175781 529.515625 559.0625 536.46875 559.0625 C 540.480469 559.0625 544.667969 558.761719 548.929688 558.203125 C 548.929688 558.203125 548.917969 558.210938 548.910156 558.210938 C 544.652344 558.769531 540.472656 559.070312 536.453125 559.070312 " fill-opacity="1" fill-rule="nonzero"/><path fill="#fbc059" d="M 548.910156 558.210938 C 548.917969 558.210938 548.929688 558.203125 548.929688 558.203125 C 552.207031 557.777344 555.527344 557.195312 558.867188 556.480469 L 558.859375 556.480469 C 555.527344 557.195312 552.199219 557.777344 548.910156 558.210938 " fill-opacity="1" fill-rule="nonzero"/><path fill="#fbc45a" d="M 536.46875 559.0625 C 529.515625 559.0625 523.054688 558.175781 517.5 556.195312 C 516.625 554.746094 515.917969 553.214844 515.394531 551.605469 C 509.644531 533.851562 528.03125 511.957031 556.484375 502.71875 C 565.070312 499.921875 573.582031 498.605469 581.453125 498.605469 C 599.683594 498.605469 614.429688 505.707031 618.449219 518.101562 C 618.519531 518.324219 618.589844 518.542969 618.660156 518.765625 C 604.523438 521.046875 589.980469 526.902344 575.355469 538.078125 C 574.507812 538.730469 573.679688 539.394531 572.875 540.074219 C 571.972656 539.871094 570.230469 539.34375 568.800781 538.078125 C 566.679688 536.203125 565.097656 532.585938 565.097656 532.585938 C 565.097656 532.585938 565.882812 536.097656 565.46875 539.023438 C 564.949219 542.347656 562.996094 543.59375 562.996094 543.59375 L 563.878906 546.132812 C 564.117188 546.832031 564.480469 547.449219 564.9375 547.972656 C 562.660156 550.679688 560.636719 553.515625 558.867188 556.480469 C 555.527344 557.195312 552.207031 557.777344 548.929688 558.203125 C 544.667969 558.761719 540.480469 559.0625 536.46875 559.0625 " fill-opacity="1" fill-rule="nonzero"/><path fill="#401e08" d="M 589.8125 479.277344 C 591.269531 480.628906 592.304688 482.484375 592.613281 484.609375 C 592.800781 485.6875 592.746094 486.84375 592.3125 488.074219 C 591.878906 489.269531 590.714844 490.550781 589.246094 490.9375 C 586.101562 491.566406 584.128906 489.816406 582.789062 488.332031 C 581.445312 486.722656 580.632812 484.792969 580.492188 482.785156 C 581.992188 484.121094 583.316406 485.316406 584.714844 486.226562 C 586.046875 487.128906 587.65625 487.710938 588.257812 487.429688 C 588.882812 487.429688 589.554688 486.304688 589.785156 484.679688 C 590.023438 483.070312 589.917969 481.292969 589.8125 479.277344 " fill-opacity="1" fill-rule="nonzero"/><path fill="#401e08" d="M 522.253906 504.8125 C 523.71875 506.15625 524.753906 508.011719 525.070312 510.136719 C 525.257812 511.195312 525.195312 512.355469 524.78125 513.585938 C 524.363281 514.777344 523.164062 516.09375 521.714844 516.457031 C 518.585938 517.09375 516.605469 515.363281 515.261719 513.859375 C 513.894531 512.265625 513.097656 510.332031 512.957031 508.332031 C 514.457031 509.667969 515.777344 510.859375 517.171875 511.761719 C 518.503906 512.65625 520.105469 513.230469 520.722656 512.957031 C 521.351562 512.957031 522.011719 511.84375 522.234375 510.199219 C 522.472656 508.589844 522.367188 506.820312 522.253906 504.8125 " fill-opacity="1" fill-rule="nonzero"/><path fill="#f46a7f" d="M 562.996094 543.59375 L 563.878906 546.132812 C 564.859375 549.007812 567.988281 550.527344 570.851562 549.5625 C 573.714844 548.582031 575.257812 545.46875 574.269531 542.597656 L 573.457031 540.183594 C 573.457031 540.183594 570.816406 539.863281 568.800781 538.078125 C 566.679688 536.203125 565.097656 532.585938 565.097656 532.585938 C 565.097656 532.585938 565.882812 536.097656 565.46875 539.023438 C 564.949219 542.347656 562.996094 543.59375 562.996094 543.59375 " fill-opacity="1" fill-rule="nonzero"/><path fill="#f89ca8" d="M 568.421875 544.171875 C 568.421875 544.160156 568.421875 544.152344 568.421875 544.144531 C 568.121094 543.332031 567.863281 542.488281 567.667969 541.632812 C 567.457031 540.785156 567.289062 539.917969 567.210938 539.023438 C 567.6875 539.785156 568.066406 540.570312 568.429688 541.375 C 568.730469 542.03125 568.984375 542.703125 569.234375 543.367188 C 568.960938 543.628906 568.695312 543.894531 568.421875 544.171875 " fill-opacity="1" fill-rule="nonzero"/><path fill="#401e08" d="M 572.652344 540.21875 C 570.707031 540.429688 568.886719 539.792969 567.308594 538.371094 C 565.335938 536.566406 564.390625 534.082031 564.117188 533.375 L 558.753906 517.535156 L 560.839844 516.820312 L 566.21875 532.640625 C 566.40625 533.242188 567.226562 535.285156 568.816406 536.714844 C 570.25 538.015625 571.832031 538.351562 573.640625 537.742188 C 577.496094 536.425781 578.113281 533.640625 577.363281 531.464844 L 576.011719 527.457031 C 575.796875 526.875 576.117188 526.246094 576.707031 526.035156 C 577.316406 525.839844 577.902344 526.15625 578.121094 526.734375 L 579.472656 530.757812 C 580.597656 534.027344 579.449219 538.105469 574.324219 539.855469 C 573.773438 540.03125 573.191406 540.171875 572.652344 540.21875 " fill-opacity="1" fill-rule="nonzero"/><path fill="#401e08" d="M 559.804688 544.523438 C 557.941406 544.71875 556.570312 544.257812 555.652344 543.761719 C 553.707031 542.675781 552.851562 540.898438 552.535156 539.945312 L 551.179688 535.921875 C 550.976562 535.34375 551.289062 534.71875 551.863281 534.515625 C 552.4375 534.320312 553.070312 534.628906 553.25 535.203125 L 554.617188 539.21875 C 555.007812 540.351562 555.785156 541.289062 556.722656 541.816406 C 557.984375 542.515625 559.558594 542.542969 561.441406 541.90625 C 563.226562 541.289062 564.265625 540.074219 564.621094 538.148438 C 565.007812 536.035156 564.382812 533.941406 564.171875 533.363281 L 558.796875 517.519531 L 560.890625 516.792969 L 566.246094 532.640625 C 566.539062 533.347656 567.289062 535.902344 566.804688 538.539062 C 566.300781 541.242188 564.691406 543.136719 562.128906 544.019531 C 561.289062 544.292969 560.503906 544.460938 559.804688 544.523438 " fill-opacity="1" fill-rule="nonzero"/><path fill="#401e08" d="M 574.949219 512.578125 C 576.753906 517.863281 571.511719 524.433594 563.269531 527.253906 C 555.007812 530.066406 546.851562 528.066406 545.039062 522.773438 C 543.253906 517.484375 548.449219 510.90625 556.730469 508.085938 C 565.007812 505.261719 573.128906 507.269531 574.949219 512.578125 " fill-opacity="1" fill-rule="nonzero"/><path fill="#401e08" d="M 577.125 506.457031 C 576.769531 506.492188 576.445312 506.386719 576.1875 506.128906 C 575.773438 505.6875 575.789062 504.988281 576.230469 504.566406 C 576.503906 504.289062 604.199219 477.765625 634.238281 475.085938 C 634.875 475.03125 635.398438 475.480469 635.433594 476.101562 C 635.53125 476.695312 635.050781 477.234375 634.453125 477.285156 C 634.230469 477.304688 633.957031 477.339844 633.734375 477.355469 C 604.796875 480.285156 578.042969 505.890625 577.761719 506.15625 C 577.582031 506.34375 577.355469 506.441406 577.125 506.457031 " fill-opacity="1" fill-rule="nonzero"/><path fill="#401e08" d="M 579.855469 509.109375 C 579.484375 509.144531 579.113281 508.976562 578.839844 508.648438 C 578.492188 508.15625 578.609375 507.457031 579.101562 507.101562 C 579.4375 506.855469 612.777344 483.210938 643.648438 481.671875 C 644.257812 481.636719 644.753906 482.113281 644.816406 482.722656 C 644.816406 483.335938 644.339844 483.863281 643.757812 483.890625 C 613.574219 485.367188 580.71875 508.648438 580.402344 508.898438 L 579.855469 509.109375 " fill-opacity="1" fill-rule="nonzero"/><path fill="#401e08" d="M 581.285156 512.746094 C 580.871094 512.78125 580.480469 512.59375 580.214844 512.222656 C 579.890625 511.71875 580.074219 511.019531 580.542969 510.703125 C 580.824219 510.523438 607.945312 493.351562 641.546875 491.972656 C 642.148438 491.964844 642.679688 492.433594 642.703125 493.050781 C 642.722656 493.652344 642.253906 494.183594 641.644531 494.210938 C 608.695312 495.5625 582.019531 512.398438 581.753906 512.566406 L 581.285156 512.746094 " fill-opacity="1" fill-rule="nonzero"/><path fill="#401e08" d="M 582.203125 516.359375 C 581.734375 516.414062 581.292969 516.148438 581.082031 515.699219 C 580.84375 515.121094 581.101562 514.476562 581.675781 514.230469 C 581.929688 514.125 608.421875 502.980469 632.382812 503.019531 C 633.019531 503.007812 633.515625 503.523438 633.507812 504.121094 C 633.53125 504.722656 633.027344 505.253906 632.417969 505.238281 C 608.878906 505.210938 582.804688 516.167969 582.53125 516.289062 L 582.203125 516.359375 " fill-opacity="1" fill-rule="nonzero"/><path fill="#401e08" d="M 479.652344 541.78125 C 479.28125 541.808594 478.910156 541.683594 478.683594 541.386719 C 478.285156 540.925781 478.328125 540.234375 478.8125 539.828125 C 501.796875 520.332031 540.171875 519.289062 540.550781 519.289062 C 541.152344 519.269531 541.671875 519.746094 541.691406 520.359375 C 541.683594 520.996094 541.214844 521.480469 540.605469 521.5 C 540.207031 521.507812 502.636719 522.53125 480.238281 541.527344 L 479.652344 541.78125 " fill-opacity="1" fill-rule="nonzero"/><path fill="#401e08" d="M 477.976562 552.996094 C 477.65625 553.03125 477.304688 552.90625 477.046875 552.640625 C 476.640625 552.199219 476.683594 551.492188 477.117188 551.074219 C 499.921875 530.191406 540.171875 523.109375 540.558594 523.046875 C 541.179688 522.941406 541.746094 523.335938 541.867188 523.9375 C 541.949219 524.558594 541.566406 525.125 540.949219 525.230469 C 540.550781 525.300781 500.921875 532.277344 478.628906 552.710938 C 478.433594 552.878906 478.222656 552.976562 477.976562 552.996094 " fill-opacity="1" fill-rule="nonzero"/><path fill="#401e08" d="M 486.730469 558.9375 C 486.421875 558.964844 486.070312 558.847656 485.8125 558.59375 C 485.398438 558.140625 485.433594 557.433594 485.882812 557.007812 C 510.464844 534.109375 541.753906 526.855469 542.042969 526.792969 C 542.65625 526.652344 543.253906 527.015625 543.378906 527.617188 C 543.503906 528.226562 543.160156 528.8125 542.539062 528.953125 C 542.210938 529.03125 511.515625 536.148438 487.386719 558.644531 C 487.191406 558.8125 486.960938 558.917969 486.730469 558.9375 " fill-opacity="1" fill-rule="nonzero"/><path fill="#401e08" d="M 501.371094 559.960938 C 501.0625 560.007812 500.746094 559.890625 500.480469 559.652344 C 500.074219 559.21875 500.046875 558.511719 500.507812 558.078125 C 517.304688 541.003906 543.863281 529.988281 544.128906 529.878906 C 544.714844 529.632812 545.339844 529.925781 545.597656 530.472656 C 545.828125 531.039062 545.554688 531.683594 544.976562 531.921875 C 544.730469 532.039062 518.585938 542.886719 502.078125 559.625 C 501.875 559.828125 501.621094 559.9375 501.371094 559.960938 " fill-opacity="1" fill-rule="nonzero"/><path fill="#f6882b" d="M 796.566406 510.976562 C 798.554688 514.761719 798.324219 519.480469 795.613281 523.160156 C 791.847656 528.199219 784.707031 529.246094 779.644531 525.496094 C 779.292969 525.222656 759.339844 510.84375 749.3125 522.144531 C 747.3125 524.363281 744.964844 527.191406 742.242188 530.527344 C 731.867188 543.082031 717.644531 560.316406 700.449219 571.988281 C 672.058594 591.203125 649.578125 585.011719 635.714844 576.417969 C 630.335938 573.121094 628.683594 566.0625 632.003906 560.707031 C 635.316406 555.328125 642.351562 553.640625 647.722656 556.984375 C 673.984375 573.21875 701.207031 544.328125 724.613281 515.9375 C 727.511719 512.488281 729.988281 509.472656 732.230469 506.910156 C 751.449219 485.339844 780.589844 497.632812 793.324219 507.171875 C 794.703125 508.207031 795.816406 509.542969 796.566406 510.976562 " fill-opacity="1" fill-rule="nonzero"/><path fill="#df6821" d="M 715.9375 559.316406 C 715.9375 559.316406 718.324219 553.605469 716.539062 545.761719 C 715.082031 539.261719 708.195312 534.804688 708.195312 534.804688 C 688.917969 555.097656 668.046875 569.558594 647.722656 556.984375 C 642.351562 553.640625 635.316406 555.328125 632.003906 560.707031 C 628.683594 566.0625 630.335938 573.121094 635.714844 576.417969 C 649.578125 585.011719 672.058594 591.203125 700.449219 571.988281 C 707.269531 567.382812 710.097656 565.046875 715.9375 559.316406 " fill-opacity="1" fill-rule="nonzero"/><path fill="#c3633a" d="M 780.617188 631.027344 C 780.617188 638.625 780.617188 650.015625 780.617188 650.015625 C 779.265625 672.050781 761.875 665.0625 750.777344 670.378906 C 736.800781 677.070312 710.378906 686.097656 699.183594 687.9375 C 695.792969 688.488281 693.0625 686.796875 690.703125 685.109375 C 688.226562 683.332031 686.152344 681.5625 684.128906 682.375 C 615.542969 710.160156 558.691406 693.28125 551.71875 647 C 548.371094 624.820312 566.140625 598.171875 587.746094 593.527344 C 611.46875 588.425781 668.082031 582.933594 696.914062 630.410156 C 716.679688 662.960938 751.386719 642.472656 751.386719 642.472656 C 751.386719 621.894531 780.617188 610.363281 780.617188 631.027344 " fill-opacity="1" fill-rule="nonzero"/><path fill="#e4d8c2" d="M 725.605469 655.742188 C 725.417969 653.285156 725.257812 650.84375 725.207031 648.378906 C 739.097656 648.667969 751.015625 641.214844 751.015625 641.214844 C 751.015625 620.214844 781.703125 609.570312 781.703125 630.667969 C 781.703125 638.414062 781.703125 650.03125 781.703125 650.03125 C 780.308594 672.519531 762.050781 665.398438 750.726562 670.820312 C 745.574219 673.285156 738.714844 676.453125 731.585938 678.238281 C 728.203125 671.136719 726.214844 663.914062 725.605469 655.742188 " fill-opacity="1" fill-rule="nonzero"/><path fill="#b8a27c" d="M 779.449219 622.683594 C 777.691406 622.398438 775.960938 622.71875 774.324219 623.320312 C 772.699219 623.945312 771.171875 624.917969 769.925781 626.238281 C 768.679688 627.546875 767.734375 629.199219 767.328125 630.957031 C 766.914062 632.726562 767.007812 634.566406 767.707031 636.175781 C 768.421875 634.566406 769.03125 633.167969 769.800781 631.929688 C 770.542969 630.683594 771.410156 629.597656 772.371094 628.5625 C 773.34375 627.535156 774.441406 626.582031 775.617188 625.636719 C 776.808594 624.679688 778.0625 623.75 779.449219 622.683594 " fill-opacity="1" fill-rule="nonzero"/><path fill="#b8a27c" d="M 770.015625 620.542969 C 768.503906 620.234375 766.9375 620.445312 765.488281 621.0625 C 764.039062 621.683594 762.722656 622.777344 761.847656 624.167969 C 760.9375 625.539062 760.507812 627.148438 760.460938 628.6875 C 760.425781 630.214844 760.726562 631.699219 761.433594 633.082031 C 762.132812 631.691406 762.566406 630.375 763.078125 629.191406 C 763.554688 627.996094 764.074219 626.953125 764.6875 625.988281 C 765.304688 625.042969 766.011719 624.167969 766.914062 623.300781 C 767.8125 622.417969 768.847656 621.59375 770.015625 620.542969 " fill-opacity="1" fill-rule="nonzero"/><path fill="#b8a27c" d="M 781.28125 632.9375 C 779.769531 632.628906 778.203125 632.839844 776.746094 633.453125 C 775.304688 634.078125 773.988281 635.167969 773.097656 636.554688 C 772.207031 637.933594 771.761719 639.542969 771.726562 641.074219 C 771.683594 642.613281 771.984375 644.089844 772.683594 645.476562 C 773.398438 644.089844 773.820312 642.773438 774.324219 641.585938 C 774.820312 640.394531 775.332031 639.339844 775.941406 638.386719 C 776.550781 637.429688 777.277344 636.554688 778.179688 635.6875 C 779.078125 634.8125 780.105469 633.984375 781.28125 632.9375 " fill-opacity="1" fill-rule="nonzero"/><path fill="#c3633a" d="M 852.894531 613.8125 C 867.007812 617.5625 879.066406 622.734375 903.835938 635.503906 C 928.601562 648.273438 940.53125 646.027344 961.542969 637.015625 C 961.542969 637.015625 959.394531 626.5625 969.414062 620.859375 C 973.066406 618.792969 985.929688 613.539062 985.929688 623.113281 C 985.929688 632.53125 984.710938 651.285156 984.710938 656.824219 C 984.710938 665.082031 977.210938 668.085938 965.199219 668.085938 C 954.695312 668.085938 930.855469 688.46875 922.417969 683.6875 C 909.851562 676.550781 908.429688 675.230469 901.015625 677.203125 C 885.296875 681.378906 868.632812 689.1875 846.410156 689.875 C 828.109375 690.441406 810.96875 674.101562 810.96875 648.164062 C 810.96875 629.597656 829.523438 607.613281 852.894531 613.8125 " fill-opacity="1" fill-rule="nonzero"/><path fill="#e4d8c2" d="M 949.96875 670.5625 C 943.667969 666.082031 936.105469 661.597656 933.410156 653.859375 C 932.359375 650.808594 931.933594 647.679688 931.746094 644.453125 C 941.105469 643.894531 949.066406 641.367188 960.554688 636.449219 C 960.554688 636.449219 959.394531 625.988281 969.75 620.101562 C 973.507812 617.96875 986.789062 612.546875 986.789062 622.425781 C 986.789062 632.144531 986.824219 650.554688 986.824219 656.257812 C 986.824219 664.78125 977.773438 668.820312 965.386719 668.820312 C 962.242188 668.820312 956.902344 670.429688 952.160156 672.835938 C 951.117188 671.988281 951.074219 671.339844 949.96875 670.5625 " fill-opacity="1" fill-rule="nonzero"/><path fill="#b8a27c" d="M 986.070312 620.957031 C 984.332031 620.675781 982.582031 620.984375 980.964844 621.601562 C 979.328125 622.214844 977.800781 623.195312 976.554688 624.511719 C 975.300781 625.8125 974.363281 627.484375 973.949219 629.242188 C 973.542969 631.003906 973.640625 632.839844 974.347656 634.460938 C 975.054688 632.839844 975.664062 631.445312 976.433594 630.199219 C 977.191406 628.960938 978.03125 627.863281 979.003906 626.835938 C 979.976562 625.8125 981.0625 624.855469 982.246094 623.910156 C 983.429688 622.957031 984.691406 622.019531 986.070312 620.957031 " fill-opacity="1" fill-rule="nonzero"/><path fill="#b8a27c" d="M 976.644531 618.816406 C 975.132812 618.507812 973.558594 618.730469 972.121094 619.339844 C 970.671875 619.949219 969.363281 621.054688 968.46875 622.441406 C 967.570312 623.8125 967.136719 625.421875 967.09375 626.953125 C 967.046875 628.492188 967.355469 629.96875 968.054688 631.355469 C 968.761719 629.96875 969.195312 628.652344 969.699219 627.464844 C 970.175781 626.273438 970.695312 625.226562 971.308594 624.265625 C 971.933594 623.308594 972.648438 622.441406 973.542969 621.566406 C 974.445312 620.691406 975.484375 619.859375 976.644531 618.816406 " fill-opacity="1" fill-rule="nonzero"/><path fill="#b8a27c" d="M 986.636719 631.773438 C 985.125 631.460938 983.554688 631.683594 982.113281 632.292969 C 980.664062 632.914062 979.355469 634.007812 978.464844 635.398438 C 977.570312 636.769531 977.128906 638.378906 977.085938 639.914062 C 977.042969 641.453125 977.351562 642.929688 978.058594 644.308594 C 978.753906 642.914062 979.1875 641.613281 979.691406 640.417969 C 980.179688 639.234375 980.691406 638.183594 981.300781 637.226562 C 981.917969 636.273438 982.644531 635.398438 983.527344 634.53125 C 984.4375 633.644531 985.472656 632.824219 986.636719 631.773438 " fill-opacity="1" fill-rule="nonzero"/><path fill="#c3633a" d="M 641.414062 690.21875 C 561.289062 690.21875 517.949219 581.972656 575.355469 538.078125 C 637.289062 490.734375 697.707031 538.890625 732.621094 549.8125 C 767.511719 560.742188 811.429688 530.394531 811.429688 530.394531 L 889.113281 588.65625 C 889.113281 654.214844 842.574219 690.21875 784.777344 690.21875 C 714.972656 690.21875 681.8125 690.21875 641.414062 690.21875 " fill-opacity="1" fill-rule="nonzero"/><path fill="#4b1615" d="M 551.058594 574.457031 C 554.574219 560.21875 562.589844 547.664062 575.355469 537.890625 C 637.289062 490.550781 697.707031 538.695312 732.621094 549.625 C 764.394531 559.574219 803.652344 535.300781 810.402344 530.878906 C 816.121094 553.136719 777.921875 600.273438 741.625 590.320312 C 695.085938 577.550781 669.566406 563.085938 654.183594 563.085938 C 629.59375 563.085938 591.835938 596.667969 551.058594 574.457031 " fill-opacity="1" fill-rule="nonzero"/><path fill="#d0baa7" d="M 551.382812 613.855469 C 594.132812 655.34375 646.628906 652.179688 698.566406 649.003906 C 722.769531 647.539062 746.855469 646.050781 769.765625 649.09375 C 827.464844 656.75 855.609375 596.960938 865.054688 570.804688 L 889.113281 588.851562 C 889.113281 654.398438 842.574219 690.414062 784.777344 690.414062 C 714.972656 690.414062 681.8125 690.414062 641.414062 690.414062 C 594.546875 690.414062 560.28125 653.382812 551.382812 613.855469 " fill-opacity="1" fill-rule="nonzero"/><path fill="#c3633a" d="M 833.28125 622.789062 C 846.984375 627.835938 858.515625 634.113281 881.984375 649.148438 C 905.460938 664.179688 917.53125 663.046875 939.292969 656.035156 C 939.292969 656.035156 938.128906 645.441406 948.652344 640.695312 C 952.46875 638.96875 965.777344 634.945312 964.882812 644.488281 C 964 653.859375 961.023438 672.410156 960.519531 677.929688 C 959.742188 686.160156 951.984375 688.441406 940.027344 687.320312 C 929.574219 686.339844 903.941406 704.394531 895.980469 698.832031 C 884.140625 690.574219 882.847656 689.113281 875.285156 690.386719 C 859.238281 693.085938 841.921875 699.300781 819.734375 697.902344 C 801.46875 696.753906 785.910156 678.875 788.339844 653.054688 C 790.070312 634.566406 810.605469 614.421875 833.28125 622.789062 " fill-opacity="1" fill-rule="nonzero"/><path fill="#e4d8c2" d="M 924.636719 688.363281 C 918.777344 683.3125 911.671875 678.132812 909.710938 670.183594 C 908.941406 667.054688 908.820312 663.886719 908.933594 660.660156 C 918.308594 660.96875 926.472656 659.21875 938.367188 655.390625 C 938.367188 655.390625 938.1875 644.867188 949.039062 639.96875 C 952.980469 638.191406 966.710938 634.042969 965.785156 643.886719 C 964.875 653.550781 963.195312 671.882812 962.664062 677.566406 C 961.871094 686.054688 952.484375 689.238281 940.152344 688.082031 C 937.003906 687.78125 931.554688 688.875 926.597656 690.832031 C 925.652344 689.882812 925.652344 689.238281 924.636719 688.363281 " fill-opacity="1" fill-rule="nonzero"/><path fill="#b8a27c" d="M 965.21875 642.355469 C 963.511719 641.90625 961.746094 642.054688 960.066406 642.496094 C 958.386719 642.976562 956.761719 643.804688 955.402344 645 C 954.03125 646.175781 952.953125 647.75 952.378906 649.464844 C 951.796875 651.179688 951.726562 653.019531 952.273438 654.683594 C 953.140625 653.152344 953.875 651.816406 954.757812 650.648438 C 955.613281 649.472656 956.566406 648.464844 957.621094 647.546875 C 958.699219 646.609375 959.863281 645.761719 961.128906 644.929688 C 962.398438 644.089844 963.753906 643.285156 965.21875 642.355469 " fill-opacity="1" fill-rule="nonzero"/><path fill="#b8a27c" d="M 956.03125 639.332031 C 954.5625 638.898438 952.972656 638.953125 951.480469 639.429688 C 949.976562 639.914062 948.5625 640.886719 947.554688 642.171875 C 946.539062 643.460938 945.949219 645.019531 945.761719 646.539062 C 945.578125 648.078125 945.734375 649.5625 946.300781 651.011719 C 947.140625 649.695312 947.695312 648.429688 948.308594 647.300781 C 948.90625 646.167969 949.507812 645.152344 950.214844 644.265625 C 950.914062 643.363281 951.707031 642.558594 952.6875 641.78125 C 953.660156 640.996094 954.773438 640.269531 956.03125 639.332031 " fill-opacity="1" fill-rule="nonzero"/><path fill="#b8a27c" d="M 964.769531 653.171875 C 963.292969 652.726562 961.710938 652.789062 960.21875 653.257812 C 958.722656 653.746094 957.300781 654.71875 956.292969 656.007812 C 955.269531 657.300781 954.6875 658.863281 954.5 660.386719 C 954.324219 661.90625 954.484375 663.410156 955.046875 664.84375 C 955.878906 663.523438 956.4375 662.261719 957.035156 661.136719 C 957.636719 659.996094 958.246094 658.988281 958.945312 658.09375 C 959.652344 657.203125 960.449219 656.398438 961.429688 655.621094 C 962.410156 654.832031 963.511719 654.109375 964.769531 653.171875 " fill-opacity="1" fill-rule="nonzero"/><path fill="#4b1615" d="M 551.191406 580.75 C 551.191406 580.75 541.074219 613.167969 510.898438 629.382812 C 480.714844 645.59375 491.386719 683.4375 492.273438 691.40625 C 492.273438 691.40625 504.457031 657.316406 521.429688 649.660156 C 552.039062 635.820312 604.445312 600.25 583.167969 535.753906 C 583.167969 535.753906 547.789062 556.019531 551.191406 580.75 " fill-opacity="1" fill-rule="nonzero"/><path fill="#e4d8c2" d="M 510.898438 629.382812 C 511.136719 629.269531 517.914062 634.113281 519.582031 637.246094 C 523.515625 644.628906 522.730469 648.855469 521.429688 649.660156 C 503.917969 660.429688 491.492188 694.808594 491.492188 694.808594 C 490.628906 686.832031 473.132812 646.007812 510.898438 629.382812 " fill-opacity="1" fill-rule="nonzero"/><path fill="#c3633a" d="M 772.242188 647.757812 C 771.628906 655.320312 770.683594 666.671875 770.683594 666.671875 C 767.53125 688.523438 750.777344 680.140625 739.28125 684.527344 C 724.808594 690.050781 697.742188 696.894531 686.433594 697.796875 C 683.050781 698.070312 680.496094 696.214844 678.304688 694.367188 C 675.9375 692.367188 673.992188 690.378906 671.882812 691.035156 C 601.246094 713.105469 545.976562 691.625 542.804688 644.929688 C 541.285156 622.539062 561.164062 597.4375 583.078125 594.570312 C 607.140625 591.433594 664.027344 590.609375 688.871094 640.277344 C 705.898438 674.347656 742.171875 656.761719 742.171875 656.761719 C 743.859375 636.253906 773.929688 627.164062 772.242188 647.757812 " fill-opacity="1" fill-rule="nonzero"/><path fill="#cc7544" d="M 694.695312 649.246094 C 692.59375 646.75 690.632812 643.789062 688.871094 640.277344 C 669.292969 601.125 629.804688 593.351562 602.175781 593.351562 C 594.742188 593.351562 588.175781 593.910156 583.078125 594.570312 C 582.664062 594.632812 582.257812 594.695312 581.84375 594.757812 C 581.851562 594.738281 581.867188 594.703125 581.878906 594.6875 C 582.273438 594.617188 582.683594 594.554688 583.089844 594.5 C 588.175781 593.839844 594.75 593.28125 602.175781 593.28125 C 629.804688 593.28125 669.292969 601.054688 688.882812 640.207031 C 690.667969 643.769531 692.644531 646.75 694.785156 649.246094 C 694.757812 649.246094 694.722656 649.246094 694.695312 649.246094 " fill-opacity="1" fill-rule="nonzero"/><path fill="#d8c5b2" d="M 721.371094 661.296875 C 712.613281 661.296875 702.628906 658.636719 694.695312 649.246094 C 694.722656 649.246094 694.757812 649.246094 694.785156 649.246094 C 702.375 658.09375 711.800781 660.6875 720.222656 660.6875 C 730.789062 660.6875 739.777344 656.617188 741.597656 655.734375 L 741.492188 657.070312 C 739.140625 658.085938 730.992188 661.296875 721.371094 661.296875 " fill-opacity="1" fill-rule="nonzero"/><path fill="#63221e" d="M 552.082031 615.140625 C 559.425781 604.6875 570.3125 596.632812 581.878906 594.6875 C 581.867188 594.703125 581.851562 594.738281 581.84375 594.757812 C 570.320312 596.710938 559.46875 604.722656 552.125 615.128906 C 552.117188 615.128906 552.101562 615.140625 552.082031 615.140625 " fill-opacity="1" fill-rule="nonzero"/><path fill="#cc7544" d="M 712.066406 672.792969 C 693.855469 672.792969 675.726562 667.167969 667.558594 649.953125 C 655.992188 625.527344 616.957031 611.238281 581.710938 611.238281 C 571.246094 611.238281 561.113281 612.496094 552.125 615.128906 C 559.46875 604.722656 570.320312 596.710938 581.84375 594.757812 C 582.257812 594.695312 582.664062 594.632812 583.078125 594.570312 C 588.175781 593.910156 594.742188 593.351562 602.175781 593.351562 C 629.804688 593.351562 669.292969 601.125 688.871094 640.277344 C 690.632812 643.789062 692.59375 646.75 694.695312 649.246094 C 702.628906 658.636719 712.613281 661.296875 721.371094 661.296875 C 730.992188 661.296875 739.140625 658.085938 741.492188 657.070312 L 740.535156 668.6875 C 732.117188 671.09375 722.078125 672.792969 712.066406 672.792969 " fill-opacity="1" fill-rule="nonzero"/><path fill="#e4d8c2" d="M 715.398438 667.875 C 715.40625 665.417969 715.453125 662.96875 715.59375 660.507812 C 729.414062 661.925781 741.90625 655.476562 741.90625 655.476562 C 743.621094 634.558594 775.066406 626.457031 773.34375 647.484375 C 772.71875 655.195312 771.761719 666.789062 771.761719 666.789062 C 768.539062 689.078125 750.929688 680.492188 739.195312 684.96875 C 733.855469 687 726.769531 689.601562 719.515625 690.792969 C 716.714844 683.4375 715.34375 676.082031 715.398438 667.875 " fill-opacity="1" fill-rule="nonzero"/><path fill="#b8a27c" d="M 771.761719 639.339844 C 770.039062 638.917969 768.273438 639.09375 766.613281 639.554688 C 764.941406 640.039062 763.324219 640.886719 761.964844 642.109375 C 760.621094 643.300781 759.550781 644.875 758.996094 646.609375 C 758.449219 648.324219 758.394531 650.171875 758.960938 651.828125 C 759.800781 650.289062 760.523438 648.933594 761.390625 647.757812 C 762.238281 646.574219 763.175781 645.566406 764.226562 644.609375 C 765.285156 643.671875 766.445312 642.816406 767.699219 641.96875 C 768.960938 641.117188 770.296875 640.285156 771.761719 639.339844 " fill-opacity="1" fill-rule="nonzero"/><path fill="#b8a27c" d="M 762.53125 636.441406 C 761.054688 636.007812 759.472656 636.085938 757.980469 636.574219 C 756.484375 637.078125 755.082031 638.066406 754.101562 639.375 C 753.085938 640.675781 752.519531 642.242188 752.339844 643.761719 C 752.183594 645.292969 752.359375 646.796875 752.953125 648.226562 C 753.773438 646.902344 754.304688 645.628906 754.902344 644.488281 C 755.488281 643.347656 756.089844 642.328125 756.777344 641.429688 C 757.457031 640.535156 758.253906 639.710938 759.214844 638.917969 C 760.1875 638.121094 761.285156 637.386719 762.53125 636.441406 " fill-opacity="1" fill-rule="nonzero"/><path fill="#b8a27c" d="M 772.742188 649.714844 C 771.269531 649.28125 769.679688 649.367188 768.183594 649.855469 C 766.699219 650.359375 765.296875 651.347656 764.296875 652.640625 C 763.289062 653.949219 762.722656 655.515625 762.566406 657.035156 C 762.398438 658.574219 762.574219 660.066406 763.15625 661.5 C 763.96875 660.171875 764.507812 658.910156 765.117188 657.757812 C 765.703125 656.609375 766.285156 655.601562 766.972656 654.699219 C 767.671875 653.808594 768.46875 652.984375 769.421875 652.199219 C 770.402344 651.394531 771.488281 650.660156 772.742188 649.714844 " fill-opacity="1" fill-rule="nonzero"/><path fill="#be512a" d="M 935.167969 523.921875 C 935.167969 523.921875 946.441406 528.34375 957.699219 536.601562 C 970.414062 545.921875 984.25 557.125 991.425781 566.375 C 997.769531 574.578125 999.34375 580.140625 994.652344 588.195312 C 986.496094 602.257812 966.941406 636.574219 956.472656 654.984375 C 952.300781 662.3125 946.496094 664.25 942.625 659.464844 C 935.195312 650.242188 924.875 633.886719 928.117188 617.183594 C 933.046875 591.804688 935.167969 523.921875 935.167969 523.921875 " fill-opacity="1" fill-rule="nonzero"/><path fill="#d77445" d="M 835.578125 567.054688 L 855.28125 520.152344 L 871.902344 509.851562 C 871.902344 509.851562 881.746094 510.507812 884.28125 511.382812 C 890.449219 513.523438 900.75 518.351562 907.113281 519.800781 L 907.105469 519.871094 L 907.121094 519.800781 C 913.476562 521.339844 924.847656 521.585938 931.324219 522.417969 C 933.992188 522.773438 949.074219 530.066406 953.40625 543.164062 C 957.398438 555.242188 950.25 593.953125 950.25 593.953125 C 952.476562 602.167969 952.726562 626.625 937.128906 632.496094 C 911.972656 641.96875 904.523438 651.96875 885.429688 647.484375 L 877.652344 645.664062 L 877.664062 645.601562 L 877.644531 645.65625 L 869.871094 643.832031 C 850.765625 639.359375 848.546875 627.085938 830.203125 607.410156 C 818.832031 595.226562 829.921875 573.421875 835.578125 567.054688 " fill-opacity="1" fill-rule="nonzero"/><path fill="#e4d8c2" d="M 878.96875 587.285156 L 901.050781 517.898438 C 902.527344 518.394531 905.523438 519.289062 907.070312 519.703125 C 908.527344 520.09375 910.304688 520.570312 913.09375 520.828125 L 902.316406 593.078125 C 915.976562 599.664062 926.933594 611.574219 924.15625 623.398438 C 922.515625 630.472656 909.375 643.832031 902.890625 647.386719 C 897.695312 648.8125 892.347656 649.066406 885.519531 647.46875 L 877.75 645.636719 L 877.75 645.574219 L 877.742188 645.636719 L 869.949219 643.804688 C 863.117188 642.207031 858.4375 639.597656 854.414062 636.015625 C 850.183594 629.949219 844.882812 609.195312 846.535156 602.125 C 849.289062 590.335938 863.992188 586.367188 878.96875 587.285156 " fill-opacity="1" fill-rule="nonzero"/><path fill="#4b1615" d="M 862.316406 567.539062 C 861.609375 568.621094 860.9375 569.707031 860.148438 570.539062 C 859.46875 571.484375 858.363281 571.898438 858.699219 571.757812 C 858.902344 572.058594 858.074219 571.070312 857.886719 569.953125 C 857.550781 568.839844 857.4375 567.574219 857.269531 566.292969 C 857.046875 563.703125 856.933594 561.023438 856.820312 558.183594 C 855.484375 560.671875 854.574219 563.402344 854.28125 566.265625 C 854.097656 567.699219 854.125 569.167969 854.34375 570.714844 C 854.46875 571.492188 854.6875 572.289062 855.113281 573.148438 C 855.503906 573.933594 856.246094 575.046875 857.730469 575.480469 C 857.886719 575.507812 857.488281 575.445312 858.074219 575.542969 L 858.109375 575.542969 L 858.179688 575.550781 L 858.304688 575.5625 L 858.558594 575.578125 C 858.902344 575.570312 859.382812 575.507812 859.761719 575.402344 C 860.351562 575.1875 860.820312 574.933594 861.191406 574.640625 C 861.980469 574.066406 862.527344 573.457031 862.996094 572.8125 C 863.878906 571.511719 864.558594 570.210938 865.027344 568.832031 C 866.015625 566.132812 866.386719 563.289062 866.300781 560.464844 C 864.949219 562.953125 863.648438 565.320312 862.316406 567.539062 " fill-opacity="1" fill-rule="nonzero"/><path fill="#4b1615" d="M 935.238281 577.003906 C 933.886719 579.476562 932.597656 581.855469 931.261719 584.074219 C 930.554688 585.15625 929.890625 586.234375 929.089844 587.082031 C 928.398438 588.011719 927.328125 588.425781 927.628906 588.285156 C 927.84375 588.59375 927.011719 587.59375 926.835938 586.480469 C 926.5 585.375 926.375 584.101562 926.199219 582.820312 C 925.988281 580.230469 925.871094 577.550781 925.75 574.71875 C 924.433594 577.195312 923.511719 579.929688 923.222656 582.785156 C 923.035156 584.226562 923.070312 585.695312 923.28125 587.242188 C 923.398438 588.027344 923.636719 588.816406 924.050781 589.671875 C 924.441406 590.460938 925.175781 591.574219 926.683594 592.007812 C 926.828125 592.035156 926.4375 591.980469 927.019531 592.070312 L 927.054688 592.078125 L 927.109375 592.078125 L 927.25 592.085938 L 927.488281 592.105469 C 927.832031 592.097656 928.3125 592.035156 928.691406 591.9375 C 929.292969 591.722656 929.769531 591.46875 930.140625 591.175781 C 930.917969 590.601562 931.472656 589.984375 931.933594 589.347656 C 932.816406 588.046875 933.496094 586.746094 933.964844 585.367188 C 934.964844 582.671875 935.335938 579.824219 935.238281 577.003906 " fill-opacity="1" fill-rule="nonzero"/><path fill="#be512a" d="M 872.46875 509.886719 C 872.46875 509.886719 871.804688 509.800781 851.515625 509.046875 C 838.289062 508.5625 822.5 509.234375 806.507812 512.789062 C 796.832031 514.953125 794.964844 527.636719 795.390625 537.0625 C 796.203125 555.109375 796.65625 595.765625 796.8125 613.847656 C 796.867188 619.382812 802.8125 622.476562 810.351562 620.515625 C 821.757812 617.535156 836.859375 610.769531 840.410156 595.589844 C 849.175781 558.183594 852.101562 546.027344 856.871094 525.628906 C 858.914062 516.925781 872.46875 509.886719 872.46875 509.886719 " fill-opacity="1" fill-rule="nonzero"/><path fill="#4b1615" d="M 912.078125 593.261719 C 912.027344 587.691406 903.71875 584.410156 892.921875 581.882812 C 879.863281 578.816406 873.308594 578.636719 870.992188 583.632812 C 868.277344 589.496094 878.113281 603.007812 888.25 605.386719 C 896.476562 607.3125 912.148438 600.011719 912.078125 593.261719 " fill-opacity="1" fill-rule="nonzero"/><path fill="#4b1615" d="M 841.992188 601.320312 L 842.300781 601.40625 C 844.632812 605.4375 847.3125 609.3125 850.332031 612.847656 C 851.851562 614.617188 853.46875 616.289062 855.226562 617.765625 C 856.976562 619.242188 858.902344 620.523438 860.960938 621.257812 C 861.464844 621.433594 861.980469 621.578125 862.507812 621.671875 C 863.046875 621.769531 863.597656 621.851562 864.136719 621.894531 C 865.238281 621.992188 866.34375 621.957031 867.441406 621.824219 C 869.632812 621.578125 871.769531 620.914062 873.808594 620.027344 C 875.859375 619.128906 877.804688 617.988281 879.632812 616.703125 C 880.550781 616.058594 881.4375 615.378906 882.300781 614.660156 C 882.71875 614.300781 883.148438 613.929688 883.554688 613.554688 C 883.960938 613.195312 884.386719 612.789062 884.714844 612.453125 C 884.933594 612.222656 885.207031 612.042969 885.527344 611.945312 L 886.84375 603.335938 L 890.226562 604.121094 C 890.226562 604.121094 887.84375 612.714844 888.011719 613.175781 L 888.011719 613.21875 C 888.160156 613.671875 888.363281 614.226562 888.566406 614.734375 C 888.769531 615.246094 888.980469 615.765625 889.203125 616.269531 C 889.664062 617.296875 890.15625 618.304688 890.695312 619.285156 C 891.765625 621.25 893.011719 623.140625 894.441406 624.847656 C 895.863281 626.546875 897.5 628.085938 899.347656 629.277344 C 900.265625 629.878906 901.246094 630.402344 902.261719 630.800781 C 902.773438 631.003906 903.296875 631.179688 903.828125 631.320312 L 904.011719 631.375 L 904.222656 631.425781 L 904.605469 631.515625 C 904.859375 631.558594 905.125 631.605469 905.390625 631.640625 C 907.546875 631.894531 909.835938 631.585938 912.050781 631.054688 C 914.289062 630.507812 916.46875 629.730469 918.609375 628.820312 C 922.875 626.988281 926.984375 624.714844 930.863281 622.132812 L 930.875 622.125 L 931.289062 622.195312 L 931.226562 622.601562 C 927.480469 625.433594 923.496094 627.96875 919.234375 630.101562 C 917.117188 631.152344 914.90625 632.089844 912.582031 632.804688 C 910.269531 633.503906 907.800781 634.007812 905.214844 633.867188 C 904.886719 633.839844 904.558594 633.8125 904.234375 633.769531 L 903.746094 633.691406 L 903.507812 633.644531 L 903.269531 633.59375 C 902.652344 633.460938 902.03125 633.292969 901.421875 633.089844 C 900.203125 632.683594 899.046875 632.160156 897.933594 631.53125 C 895.722656 630.269531 893.789062 628.632812 892.082031 626.828125 C 890.386719 625.035156 888.910156 623.054688 887.613281 620.976562 C 886.96875 619.949219 886.367188 618.886719 885.800781 617.792969 C 885.660156 617.527344 885.527344 617.242188 885.394531 616.960938 C 885.136719 617.148438 884.910156 617.339844 884.652344 617.527344 C 883.671875 618.242188 882.664062 618.921875 881.613281 619.570312 C 879.535156 620.84375 877.335938 621.949219 875.011719 622.804688 C 872.6875 623.664062 870.230469 624.265625 867.695312 624.40625 C 866.421875 624.476562 865.140625 624.421875 863.886719 624.246094 C 863.261719 624.160156 862.625 624.035156 862.015625 623.875 C 861.378906 623.714844 860.742188 623.503906 860.160156 623.257812 C 857.78125 622.230469 855.800781 620.691406 854.042969 619.03125 C 852.285156 617.367188 850.730469 615.539062 849.289062 613.644531 C 846.4375 609.851562 844.007812 605.800781 841.914062 601.601562 L 841.992188 601.320312 " fill-opacity="1" fill-rule="nonzero"/><path fill="#574640" d="M 739.441406 636.554688 C 742.789062 640.730469 748.460938 643.488281 757.511719 641.800781 C 759.96875 641.347656 762.441406 638.386719 766.769531 638.386719 C 769.351562 638.386719 773.777344 641.347656 776.234375 641.800781 C 785.917969 643.601562 791.785156 640.296875 795.054688 635.601562 C 800.480469 647.804688 814.820312 693.757812 783.878906 704.773438 C 781.289062 705.695312 767.371094 704.773438 767.371094 704.773438 L 767.230469 704.773438 C 767.230469 704.773438 750.714844 705.890625 747.324219 704.773438 C 719.570312 695.648438 733.449219 650.457031 739.441406 636.554688 " fill-opacity="1" fill-rule="nonzero"/><path fill="#443630" d="M 730.683594 679.121094 C 732.894531 679.832031 736.269531 681.777344 738.546875 687.160156 C 741.003906 692.933594 746.652344 695.074219 751.476562 693.289062 C 756.28125 691.503906 758.113281 671.835938 753.871094 663.074219 C 748.761719 652.523438 786.5625 651.507812 779.832031 663.074219 C 774.980469 671.402344 777.417969 691.503906 782.234375 693.289062 C 787.050781 695.074219 792.695312 692.933594 795.152344 687.160156 C 797.335938 682.023438 800.507812 680.015625 802.707031 679.238281 C 801.335938 690.398438 796.210938 700.371094 783.851562 704.773438 C 781.261719 705.695312 767.34375 704.773438 767.34375 704.773438 L 767.210938 704.773438 C 767.210938 704.773438 750.6875 705.890625 747.296875 704.773438 C 735.625 700.9375 731.3125 690.714844 730.683594 679.121094 " fill-opacity="1" fill-rule="nonzero"/><path fill="#f68a7e" d="M 745.113281 706.585938 C 742.984375 706.585938 742.019531 704.835938 742.976562 702.695312 C 742.976562 702.695312 744.40625 696.667969 750.636719 696.667969 C 756.777344 696.667969 758.304688 702.695312 758.304688 702.695312 C 759.261719 704.835938 758.289062 706.585938 756.167969 706.585938 L 745.113281 706.585938 " fill-opacity="1" fill-rule="nonzero"/><path fill="#e0594f" d="M 752.785156 697.125 C 753.023438 698.027344 753.25 698.824219 753.417969 699.609375 C 753.585938 700.398438 753.695312 701.140625 753.710938 701.867188 C 753.71875 702.597656 753.640625 703.308594 753.457031 704.050781 C 753.277344 704.808594 752.988281 705.5625 752.6875 706.4375 C 753.367188 706.136719 753.957031 705.542969 754.402344 704.738281 C 754.84375 703.925781 755.089844 702.863281 755.070312 701.820312 C 755.054688 700.777344 754.78125 699.789062 754.382812 698.984375 C 753.96875 698.179688 753.445312 697.507812 752.785156 697.125 " fill-opacity="1" fill-rule="nonzero"/><path fill="#e0594f" d="M 748.292969 697.125 C 748.046875 698.027344 747.828125 698.824219 747.648438 699.609375 C 747.480469 700.398438 747.386719 701.140625 747.367188 701.867188 C 747.359375 702.597656 747.429688 703.308594 747.613281 704.050781 C 747.800781 704.808594 748.082031 705.5625 748.382812 706.4375 C 747.703125 706.136719 747.109375 705.542969 746.667969 704.738281 C 746.226562 703.925781 745.980469 702.863281 746.007812 701.820312 C 746.023438 700.777344 746.289062 699.789062 746.695312 698.984375 C 747.101562 698.179688 747.632812 697.507812 748.292969 697.125 " fill-opacity="1" fill-rule="nonzero"/><path fill="#f68a7e" d="M 777.59375 706.585938 C 775.464844 706.585938 774.503906 704.835938 775.449219 702.695312 C 775.449219 702.695312 776.898438 696.667969 783.125 696.667969 C 789.257812 696.667969 790.789062 702.695312 790.789062 702.695312 C 791.734375 704.835938 790.777344 706.585938 788.648438 706.585938 L 777.59375 706.585938 " fill-opacity="1" fill-rule="nonzero"/><path fill="#e0594f" d="M 785.257812 697.125 C 785.503906 698.027344 785.722656 698.824219 785.902344 699.609375 C 786.070312 700.398438 786.175781 701.140625 786.183594 701.867188 C 786.203125 702.597656 786.121094 703.308594 785.9375 704.050781 C 785.757812 704.808594 785.476562 705.5625 785.167969 706.4375 C 785.847656 706.136719 786.449219 705.542969 786.882812 704.738281 C 787.324219 703.925781 787.570312 702.863281 787.554688 701.820312 C 787.535156 700.777344 787.261719 699.789062 786.863281 698.984375 C 786.449219 698.179688 785.917969 697.507812 785.257812 697.125 " fill-opacity="1" fill-rule="nonzero"/><path fill="#e0594f" d="M 780.777344 697.125 C 780.527344 698.027344 780.308594 698.824219 780.132812 699.609375 C 779.964844 700.398438 779.855469 701.140625 779.847656 701.867188 C 779.839844 702.597656 779.917969 703.308594 780.09375 704.050781 C 780.28125 704.808594 780.5625 705.5625 780.875 706.4375 C 780.191406 706.136719 779.59375 705.542969 779.148438 704.738281 C 778.71875 703.925781 778.460938 702.863281 778.488281 701.820312 C 778.503906 700.777344 778.769531 699.789062 779.175781 698.984375 C 779.582031 698.179688 780.113281 697.507812 780.777344 697.125 " fill-opacity="1" fill-rule="nonzero"/><path fill="#f68a7e" d="M 744.953125 653.347656 C 746.4375 653.578125 746.402344 656.167969 744.867188 659.113281 C 744.867188 659.113281 741.402344 667.523438 737.039062 666.859375 C 732.742188 666.203125 734.128906 657.46875 734.128906 657.46875 C 734.335938 654.328125 735.730469 651.933594 737.214844 652.164062 L 744.953125 653.347656 " fill-opacity="1" fill-rule="nonzero"/><path fill="#e0594f" d="M 739.449219 653.195312 L 740.050781 652.84375 L 739.496094 654.027344 C 739.085938 654.878906 738.707031 655.683594 738.390625 656.46875 C 738 657.386719 737.691406 658.300781 737.425781 659.238281 C 737.179688 660.101562 736.976562 661.058594 736.78125 662.144531 C 736.605469 663.117188 736.453125 664.144531 736.296875 665.222656 L 736.152344 666.195312 L 735.828125 665.550781 C 735.542969 665 735.429688 664.101562 735.464844 662.886719 C 735.519531 661.703125 735.730469 660.394531 736.09375 659.09375 C 736.464844 657.742188 737.027344 656.371094 737.621094 655.328125 C 738.230469 654.277344 738.867188 653.53125 739.449219 653.195312 " fill-opacity="1" fill-rule="nonzero"/><path fill="#e0594f" d="M 741.648438 656.964844 C 741.78125 656.160156 741.878906 655.300781 741.96875 654.410156 L 742.117188 653.160156 L 742.472656 653.65625 C 742.824219 654.144531 742.992188 655 742.976562 656.148438 C 742.949219 657.28125 742.710938 658.695312 742.3125 660.039062 C 741.925781 661.332031 741.402344 662.605469 740.792969 663.703125 C 740.164062 664.824219 739.566406 665.613281 739.007812 666.027344 L 738.355469 666.53125 L 738.726562 665.664062 C 739.203125 664.558594 739.609375 663.605469 739.996094 662.640625 C 740.421875 661.589844 740.75 660.652344 741.003906 659.777344 C 741.289062 658.839844 741.492188 657.917969 741.648438 656.964844 " fill-opacity="1" fill-rule="nonzero"/><path fill="#f68a7e" d="M 789.054688 656.785156 C 787.589844 656.9375 787.519531 659.476562 788.886719 662.402344 C 788.886719 662.402344 791.902344 670.765625 796.175781 670.308594 C 800.402344 669.855469 799.429688 661.277344 799.429688 661.277344 C 799.359375 658.203125 798.113281 655.8125 796.644531 655.972656 L 789.054688 656.785156 " fill-opacity="1" fill-rule="nonzero"/><path fill="#e0594f" d="M 796.636719 665.691406 C 796.496094 664.585938 796.328125 663.621094 796.125 662.746094 C 795.902344 661.792969 795.628906 660.882812 795.292969 659.933594 C 795.003906 659.140625 794.65625 658.324219 794.285156 657.449219 L 793.78125 656.246094 L 794.367188 656.628906 C 794.929688 656.992188 795.53125 657.757812 796.097656 658.839844 C 796.65625 659.910156 797.148438 661.304688 797.457031 662.667969 C 797.757812 663.984375 797.917969 665.300781 797.917969 666.488281 C 797.910156 667.699219 797.75 668.589844 797.441406 669.121094 L 797.085938 669.757812 L 796.988281 668.785156 C 796.875 667.699219 796.769531 666.671875 796.636719 665.691406 " fill-opacity="1" fill-rule="nonzero"/><path fill="#e0594f" d="M 791.210938 663.339844 C 790.867188 661.976562 790.691406 660.554688 790.714844 659.421875 C 790.75 658.273438 790.964844 657.414062 791.328125 656.945312 L 791.707031 656.46875 L 791.785156 657.734375 C 791.847656 658.625 791.910156 659.476562 792.007812 660.296875 C 792.113281 661.253906 792.289062 662.191406 792.519531 663.136719 C 792.738281 664.011719 793.03125 664.964844 793.402344 666.035156 C 793.738281 667.007812 794.109375 667.980469 794.542969 669.105469 L 794.878906 669.988281 L 794.242188 669.46875 C 793.703125 669.023438 793.136719 668.21875 792.5625 667.0625 C 792.007812 665.9375 791.539062 664.648438 791.210938 663.339844 " fill-opacity="1" fill-rule="nonzero"/><path fill="#66534d" d="M 738.285156 617.949219 C 737.558594 617.878906 737.109375 616.28125 737.109375 616.28125 C 739.980469 616.652344 743.117188 613.636719 743.117188 613.636719 C 741.164062 614 740.070312 613.460938 740.070312 613.460938 C 743.542969 612.917969 748.664062 607.535156 749.683594 606.429688 C 750.46875 605.078125 751.386719 603.511719 752.617188 601.582031 C 757.757812 593.609375 776.382812 596.898438 778.566406 597.480469 C 785.707031 599.382812 798.828125 604.308594 799.429688 613.785156 C 799.5625 615.925781 799.585938 617.703125 799.605469 619.25 C 799.773438 619.976562 801.683594 627.976562 804.625 630.285156 C 804.625 630.285156 803.40625 630.214844 801.875 628.941406 C 801.875 628.941406 803.140625 633.117188 805.835938 634.1875 C 805.835938 634.1875 804.703125 635.316406 804.03125 635.078125 L 804.042969 635.140625 C 804.414062 635.707031 806.808594 639.5625 805.359375 642.914062 C 805.359375 642.914062 805.011719 640.410156 804.191406 639.757812 C 804.191406 639.757812 802.839844 646.902344 800.390625 648.183594 C 800.390625 648.183594 801.027344 646.292969 800.992188 644.875 C 796.988281 650.554688 788.933594 654.984375 775.800781 649.21875 C 773.308594 648.121094 769.324219 644.222656 766.585938 643.503906 C 762.015625 642.3125 758.695312 644.320312 755.980469 644.054688 C 741.578125 642.664062 736.816406 634.8125 736.179688 627.871094 C 735.429688 629.082031 735.03125 631.152344 735.03125 631.152344 C 733.53125 628.84375 735.820312 621.949219 735.820312 621.949219 C 734.785156 622.117188 733.273438 624.132812 733.273438 624.132812 C 733.671875 620.214844 738.285156 617.949219 738.285156 617.949219 " fill-opacity="1" fill-rule="nonzero"/><path fill="#1e1612" d="M 754.160156 615.15625 C 753.429688 615.882812 752.898438 616.882812 752.714844 617.933594 C 752.597656 618.464844 752.582031 619.011719 752.625 619.585938 C 752.667969 619.898438 752.6875 620.144531 752.933594 620.613281 L 753.375 621.011719 L 753.621094 621.125 L 754.074219 621.265625 C 755.25 621.53125 756.53125 621.285156 757.441406 620.550781 C 758.375 619.835938 758.84375 618.773438 758.960938 617.746094 C 758.261719 618.515625 757.527344 619.128906 756.769531 619.472656 C 756.015625 619.789062 755.195312 619.871094 754.445312 619.675781 C 754.1875 620.136719 754.039062 618.878906 753.976562 618.039062 C 753.941406 617.121094 753.976562 616.191406 754.160156 615.15625 " fill-opacity="1" fill-rule="nonzero"/><path fill="#1e1612" d="M 791.484375 624.882812 C 791.148438 625.875 790.726562 626.707031 790.25 627.492188 C 789.789062 628.183594 789.039062 629.226562 789.046875 628.695312 C 788.296875 628.492188 787.613281 628.023438 787.113281 627.367188 C 786.625 626.707031 786.273438 625.8125 786.035156 624.804688 C 785.636719 625.75 785.539062 626.910156 786 627.988281 C 786.449219 629.074219 787.4375 629.914062 788.597656 630.261719 C 788.738281 630.304688 788.894531 630.339844 789.097656 630.355469 L 789.3125 630.375 L 789.914062 630.242188 C 790.355469 629.949219 790.488281 629.746094 790.671875 629.5 C 790.992188 629.011719 791.246094 628.535156 791.40625 628.015625 C 791.75 627.003906 791.785156 625.863281 791.484375 624.882812 " fill-opacity="1" fill-rule="nonzero"/><path fill="#ffffff" d="M 739.75 626.050781 C 743.179688 624.832031 751.671875 633.496094 764.589844 626.828125 L 770.5 628.359375 L 770.800781 628.4375 L 776.703125 629.976562 C 784.734375 642.109375 796.363281 638.6875 798.773438 641.429688 C 802.105469 645.238281 790.222656 656.34375 781.960938 654.1875 C 780.882812 653.90625 775.414062 652.789062 771.402344 649.5 C 770.039062 648.386719 768.734375 645.839844 766.445312 645.175781 L 766.445312 645.1875 L 766.292969 645.132812 L 766.144531 645.105469 L 766.144531 645.097656 C 763.8125 644.558594 761.417969 645.9375 759.710938 646.449219 C 756.882812 647.300781 749.285156 645.679688 748.199219 645.390625 C 739.9375 643.242188 734.980469 627.75 739.75 626.050781 " fill-opacity="1" fill-rule="nonzero"/><path fill="#312621" d="M 759.5 644.398438 C 760.972656 644.777344 762.53125 644.167969 763.617188 643.753906 C 763.953125 643.621094 764.234375 643.503906 764.429688 643.453125 C 765.675781 643.160156 766.445312 643.53125 766.480469 643.558594 L 766.878906 643.558594 L 767.140625 643.257812 L 769.597656 633.8125 C 769.660156 633.558594 769.511719 633.308594 769.273438 633.238281 C 769.015625 633.179688 768.757812 633.328125 768.707031 633.574219 L 766.375 642.542969 C 765.894531 642.417969 765.152344 642.328125 764.21875 642.558594 C 763.960938 642.613281 763.644531 642.738281 763.273438 642.878906 C 762.175781 643.320312 760.515625 643.964844 759.226562 643.300781 C 758.351562 642.859375 757.695312 641.824219 757.296875 640.261719 C 757.238281 640.011719 756.980469 639.863281 756.734375 639.925781 C 756.484375 639.996094 756.335938 640.242188 756.398438 640.492188 C 756.867188 642.328125 757.679688 643.550781 758.800781 644.132812 C 759.03125 644.25 759.269531 644.335938 759.5 644.398438 " fill-opacity="1" fill-rule="nonzero"/><path fill="#312621" d="M 772.355469 647.742188 C 772.59375 647.804688 772.832031 647.847656 773.089844 647.855469 C 774.351562 647.898438 775.660156 647.21875 776.957031 645.847656 L 776.949219 645.195312 L 776.289062 645.210938 C 775.175781 646.378906 774.113281 646.964844 773.132812 646.917969 C 771.683594 646.875 770.554688 645.496094 769.800781 644.585938 C 769.554688 644.273438 769.332031 644.007812 769.128906 643.832031 C 768.433594 643.1875 767.734375 642.894531 767.265625 642.773438 L 769.597656 633.8125 C 769.660156 633.558594 769.511719 633.308594 769.273438 633.238281 C 769.015625 633.179688 768.757812 633.328125 768.707031 633.574219 L 766.242188 643.027344 L 766.320312 643.425781 L 766.671875 643.601562 C 766.710938 643.613281 767.566406 643.65625 768.511719 644.523438 C 768.652344 644.65625 768.855469 644.894531 769.085938 645.175781 C 769.820312 646.070312 770.878906 647.359375 772.355469 647.742188 " fill-opacity="1" fill-rule="nonzero"/><path fill="#f68a7e" d="M 776.851562 630.347656 C 775.722656 633.441406 771.144531 634.476562 769.164062 633.964844 C 766.710938 633.328125 763.652344 630.046875 764.171875 626.800781 C 764.171875 626.800781 767.980469 625.316406 771.726562 626.289062 C 774.875 627.113281 776.851562 630.347656 776.851562 630.347656 " fill-opacity="1" fill-rule="nonzero"/><path fill="#66534d" d="M 754.683594 609.222656 C 754.683594 609.222656 758.710938 587.726562 745.652344 589.371094 C 743.523438 589.648438 740.378906 598.894531 744.785156 603.511719 C 749.1875 608.117188 752.484375 608.152344 753.046875 609.78125 C 753.046875 609.78125 754.488281 610.902344 754.683594 609.222656 " fill-opacity="1" fill-rule="nonzero"/><path fill="#f35c73" d="M 744.160156 590.769531 C 746.253906 591.449219 748.515625 594.472656 749.699219 598.496094 C 750.761719 602.078125 750.671875 605.464844 749.664062 607.375 C 748.3125 606.589844 745.828125 605.128906 743.964844 603.167969 C 740.546875 599.59375 742.488281 593.5625 744.160156 590.769531 " fill-opacity="1" fill-rule="nonzero"/><path fill="#66534d" d="M 793.933594 619.453125 C 793.933594 619.453125 800.886719 598.710938 811.480469 606.527344 C 813.214844 607.800781 811.453125 617.410156 805.359375 619.285156 C 799.261719 621.167969 796.363281 619.585938 795.082031 620.738281 C 795.082031 620.738281 793.277344 621.011719 793.933594 619.453125 " fill-opacity="1" fill-rule="nonzero"/><path fill="#f35c73" d="M 812.101562 608.464844 C 809.945312 608.039062 806.496094 609.585938 803.503906 612.503906 C 800.832031 615.121094 799.261719 618.128906 799.207031 620.285156 C 800.773438 620.257812 803.652344 620.1875 806.242188 619.390625 C 810.960938 617.933594 812.195312 611.726562 812.101562 608.464844 " fill-opacity="1" fill-rule="nonzero"/><path fill="#8c3d0b" d="M 956.585938 525.265625 L 956.550781 525.175781 L 953.539062 517.890625 C 953.40625 517.570312 953.203125 517.261719 952.945312 517.007812 C 951.886719 515.9375 950.152344 515.9375 949.085938 516.996094 C 948.015625 518.066406 948.015625 519.792969 949.074219 520.863281 L 953.300781 525.097656 C 951.082031 525.566406 948.917969 526.195312 946.769531 526.875 C 944.367188 527.652344 941.980469 528.492188 939.636719 529.5 L 939.195312 529.324219 L 938.808594 529.261719 C 937.84375 529.113281 936.871094 529.324219 935.902344 529.402344 C 934.929688 529.507812 933.964844 529.640625 932.992188 529.808594 L 932.730469 529.855469 L 932.515625 529.941406 L 927.507812 533.613281 L 927.375 534.167969 C 927.488281 534.390625 927.753906 534.46875 927.964844 534.363281 L 933.160156 531.667969 C 934.070312 531.816406 934.992188 531.941406 935.902344 532.046875 C 936.261719 532.074219 936.617188 532.117188 936.980469 532.164062 L 934.691406 536 C 934.496094 536.335938 934.59375 536.769531 934.921875 536.972656 C 935.257812 537.195312 935.707031 537.097656 935.917969 536.761719 L 938.597656 532.558594 L 944.347656 538.238281 C 944.523438 538.40625 944.796875 538.441406 945.003906 538.296875 C 945.242188 538.140625 945.300781 537.8125 945.144531 537.574219 L 940.902344 531.242188 C 943.164062 530.828125 945.390625 530.289062 947.601562 529.703125 C 950.417969 528.933594 953.210938 528.078125 955.921875 526.910156 C 956.550781 526.636719 956.851562 525.910156 956.585938 525.265625 " fill-opacity="1" fill-rule="nonzero"/><path fill="#8c3d0b" d="M 938.886719 518.4375 L 938.851562 518.351562 L 935.832031 511.054688 C 935.699219 510.738281 935.503906 510.4375 935.246094 510.171875 C 934.179688 509.109375 932.453125 509.101562 931.386719 510.164062 C 930.316406 511.230469 930.316406 512.957031 931.375 514.027344 L 935.601562 518.261719 C 933.382812 518.738281 931.21875 519.367188 929.070312 520.046875 C 926.660156 520.828125 924.28125 521.667969 921.941406 522.664062 L 921.5 522.488281 L 921.109375 522.425781 C 920.136719 522.277344 919.175781 522.488281 918.203125 522.566406 C 917.230469 522.683594 916.265625 522.808594 915.296875 522.976562 L 915.019531 523.027344 L 914.808594 523.117188 L 909.808594 526.777344 L 909.675781 527.335938 C 909.78125 527.554688 910.054688 527.644531 910.269531 527.527344 L 915.464844 524.832031 C 916.375 524.992188 917.292969 525.113281 918.203125 525.210938 C 918.566406 525.246094 918.917969 525.292969 919.28125 525.328125 L 916.992188 529.171875 C 916.796875 529.5 916.894531 529.933594 917.222656 530.144531 C 917.558594 530.359375 918 530.261719 918.21875 529.925781 L 920.898438 525.734375 L 926.648438 531.402344 C 926.828125 531.570312 927.089844 531.605469 927.304688 531.464844 C 927.542969 531.304688 927.605469 530.984375 927.445312 530.746094 L 923.203125 524.40625 C 925.464844 524 927.691406 523.460938 929.902344 522.867188 C 932.71875 522.097656 935.511719 521.25 938.214844 520.082031 C 938.851562 519.808594 939.152344 519.074219 938.886719 518.4375 " fill-opacity="1" fill-rule="nonzero"/><path fill="#fbc308" d="M 915.835938 421.410156 C 925.09375 421.410156 941.53125 425.894531 946.328125 449.566406 L 954.183594 472.527344 C 954.183594 472.527344 1007.941406 557.789062 1008.886719 582.953125 C 1008.886719 582.953125 995.84375 568.804688 987.273438 556.601562 C 963.222656 522.390625 930.554688 526.289062 920.515625 510.675781 C 907.792969 490.851562 910.648438 472.058594 910.648438 462.933594 C 910.648438 453.808594 901.6875 445.472656 901.6875 436.984375 C 901.6875 427.777344 907.660156 421.410156 915.835938 421.410156 " fill-opacity="1" fill-rule="nonzero"/><path fill="#d45f13" d="M 988.050781 528.449219 C 988.050781 528.449219 995.304688 544.382812 1006.625 568.257812 C 1016.609375 589.3125 1021.175781 624.484375 1021.175781 624.484375 C 1021.175781 624.484375 1016.015625 605.199219 993.6875 566.230469 C 982.539062 546.761719 963.371094 533.054688 956.621094 514.042969 L 988.050781 528.449219 " fill-opacity="1" fill-rule="nonzero"/><path fill="#f79011" d="M 949.085938 458.894531 C 949.085938 458.894531 969.9375 485.632812 975.496094 495.441406 C 983.988281 510.410156 996.515625 539.128906 996.515625 539.128906 C 996.515625 539.128906 975.097656 534.671875 956.699219 516.875 C 945.894531 506.421875 908.800781 470.761719 949.085938 458.894531 " fill-opacity="1" fill-rule="nonzero"/><path fill="#1a1514" d="M 905.425781 436.238281 C 905.425781 436.238281 903.136719 442.78125 898.222656 438.9375 C 898.222656 438.9375 899.566406 434.355469 905.425781 436.238281 " fill-opacity="1" fill-rule="nonzero"/><path fill="#302727" d="M 909.402344 433.136719 L 904.152344 427.980469 C 904.152344 427.980469 895.757812 431.316406 897.480469 441.128906 C 897.480469 441.128906 898.3125 437.28125 901.6875 436.984375 C 905.0625 436.683594 907.988281 437.894531 909.402344 433.136719 " fill-opacity="1" fill-rule="nonzero"/><path fill="#ffffff" d="M 919.308594 431.121094 C 919.308594 433.5 917.378906 435.425781 915.003906 435.425781 C 912.625 435.425781 910.699219 433.5 910.699219 431.121094 C 910.699219 428.742188 912.625 426.804688 915.003906 426.804688 C 917.378906 426.804688 919.308594 428.742188 919.308594 431.121094 " fill-opacity="1" fill-rule="nonzero"/><path fill="#302727" d="M 916.699219 431.121094 C 916.699219 432.417969 915.648438 433.472656 914.351562 433.472656 C 913.050781 433.472656 912 432.417969 912 431.121094 C 912 429.8125 913.050781 428.757812 914.351562 428.757812 C 915.648438 428.757812 916.699219 429.8125 916.699219 431.121094 " fill-opacity="1" fill-rule="nonzero"/></svg>